<mxfile host="app.diagrams.net" modified="2024-06-25T14:27:47.577Z" agent="Mozilla/5.0 (Windows NT 10.0; Win64; x64) AppleWebKit/537.36 (KHTML, like Gecko) Chrome/123.0.0.0 Safari/537.36 OPR/109.0.0.0" etag="Ei04Gef7DMACmwcKrj5C" version="24.6.2" type="device">
  <diagram name="Page-1" id="TgjlBIyjMRQV4J3gXkrl">
    <mxGraphModel dx="1126" dy="1723" grid="1" gridSize="10" guides="1" tooltips="1" connect="1" arrows="1" fold="1" page="1" pageScale="1" pageWidth="827" pageHeight="1169" math="0" shadow="0">
      <root>
        <mxCell id="0" />
        <mxCell id="1" parent="0" />
        <mxCell id="Envm_nqXqrnGejjABVVU-36" style="edgeStyle=orthogonalEdgeStyle;rounded=0;orthogonalLoop=1;jettySize=auto;html=1;entryX=0.385;entryY=-0.043;entryDx=0;entryDy=0;entryPerimeter=0;" parent="1" target="Envm_nqXqrnGejjABVVU-24" edge="1">
          <mxGeometry relative="1" as="geometry">
            <mxPoint x="1310" y="80" as="sourcePoint" />
            <mxPoint x="1306" y="119.94" as="targetPoint" />
          </mxGeometry>
        </mxCell>
        <mxCell id="Envm_nqXqrnGejjABVVU-1" value="Usuario" style="swimlane;fontStyle=1;align=center;verticalAlign=top;childLayout=stackLayout;horizontal=1;startSize=26;horizontalStack=0;resizeParent=1;resizeParentMax=0;resizeLast=0;collapsible=1;marginBottom=0;whiteSpace=wrap;html=1;" parent="1" vertex="1">
          <mxGeometry x="1170" y="-268" width="170" height="346" as="geometry" />
        </mxCell>
        <mxCell id="oZL3xkJhQJ-XLGrvxhA8-2" style="edgeStyle=orthogonalEdgeStyle;rounded=0;orthogonalLoop=1;jettySize=auto;html=1;entryX=1.009;entryY=0.019;entryDx=0;entryDy=0;entryPerimeter=0;" edge="1" parent="Envm_nqXqrnGejjABVVU-1" source="Envm_nqXqrnGejjABVVU-2" target="Envm_nqXqrnGejjABVVU-1">
          <mxGeometry relative="1" as="geometry">
            <mxPoint x="180" y="6" as="targetPoint" />
            <Array as="points">
              <mxPoint x="220" y="39" />
              <mxPoint x="220" y="6" />
            </Array>
          </mxGeometry>
        </mxCell>
        <mxCell id="Envm_nqXqrnGejjABVVU-2" value="- nombre" style="text;strokeColor=none;fillColor=none;align=left;verticalAlign=top;spacingLeft=4;spacingRight=4;overflow=hidden;rotatable=0;points=[[0,0.5],[1,0.5]];portConstraint=eastwest;whiteSpace=wrap;html=1;" parent="Envm_nqXqrnGejjABVVU-1" vertex="1">
          <mxGeometry y="26" width="170" height="26" as="geometry" />
        </mxCell>
        <mxCell id="Envm_nqXqrnGejjABVVU-3" value="- contraseÃ±a" style="text;strokeColor=none;fillColor=none;align=left;verticalAlign=top;spacingLeft=4;spacingRight=4;overflow=hidden;rotatable=0;points=[[0,0.5],[1,0.5]];portConstraint=eastwest;whiteSpace=wrap;html=1;" parent="Envm_nqXqrnGejjABVVU-1" vertex="1">
          <mxGeometry y="52" width="170" height="26" as="geometry" />
        </mxCell>
        <mxCell id="Envm_nqXqrnGejjABVVU-4" value="- fechaRegistro" style="text;strokeColor=none;fillColor=none;align=left;verticalAlign=top;spacingLeft=4;spacingRight=4;overflow=hidden;rotatable=0;points=[[0,0.5],[1,0.5]];portConstraint=eastwest;whiteSpace=wrap;html=1;" parent="Envm_nqXqrnGejjABVVU-1" vertex="1">
          <mxGeometry y="78" width="170" height="26" as="geometry" />
        </mxCell>
        <mxCell id="Envm_nqXqrnGejjABVVU-5" value="" style="line;strokeWidth=1;fillColor=none;align=left;verticalAlign=middle;spacingTop=-1;spacingLeft=3;spacingRight=3;rotatable=0;labelPosition=right;points=[];portConstraint=eastwest;strokeColor=inherit;" parent="Envm_nqXqrnGejjABVVU-1" vertex="1">
          <mxGeometry y="104" width="170" height="8" as="geometry" />
        </mxCell>
        <mxCell id="Envm_nqXqrnGejjABVVU-7" value="+ &amp;lt;create&amp;gt; Usuario()" style="text;strokeColor=none;fillColor=none;align=left;verticalAlign=top;spacingLeft=4;spacingRight=4;overflow=hidden;rotatable=0;points=[[0,0.5],[1,0.5]];portConstraint=eastwest;whiteSpace=wrap;html=1;" parent="Envm_nqXqrnGejjABVVU-1" vertex="1">
          <mxGeometry y="112" width="170" height="26" as="geometry" />
        </mxCell>
        <mxCell id="oZL3xkJhQJ-XLGrvxhA8-4" value="+ agregarSeguidor()" style="text;strokeColor=none;fillColor=none;align=left;verticalAlign=top;spacingLeft=4;spacingRight=4;overflow=hidden;rotatable=0;points=[[0,0.5],[1,0.5]];portConstraint=eastwest;whiteSpace=wrap;html=1;" vertex="1" parent="Envm_nqXqrnGejjABVVU-1">
          <mxGeometry y="138" width="170" height="26" as="geometry" />
        </mxCell>
        <mxCell id="oZL3xkJhQJ-XLGrvxhA8-5" value="+ seguirUsuario()" style="text;strokeColor=none;fillColor=none;align=left;verticalAlign=top;spacingLeft=4;spacingRight=4;overflow=hidden;rotatable=0;points=[[0,0.5],[1,0.5]];portConstraint=eastwest;whiteSpace=wrap;html=1;" vertex="1" parent="Envm_nqXqrnGejjABVVU-1">
          <mxGeometry y="164" width="170" height="26" as="geometry" />
        </mxCell>
        <mxCell id="Envm_nqXqrnGejjABVVU-32" value="+ crearPublicacion()" style="text;strokeColor=none;fillColor=none;align=left;verticalAlign=top;spacingLeft=4;spacingRight=4;overflow=hidden;rotatable=0;points=[[0,0.5],[1,0.5]];portConstraint=eastwest;whiteSpace=wrap;html=1;" parent="Envm_nqXqrnGejjABVVU-1" vertex="1">
          <mxGeometry y="190" width="170" height="26" as="geometry" />
        </mxCell>
        <mxCell id="oZL3xkJhQJ-XLGrvxhA8-3" value="+ crearRespuesta()" style="text;strokeColor=none;fillColor=none;align=left;verticalAlign=top;spacingLeft=4;spacingRight=4;overflow=hidden;rotatable=0;points=[[0,0.5],[1,0.5]];portConstraint=eastwest;whiteSpace=wrap;html=1;" vertex="1" parent="Envm_nqXqrnGejjABVVU-1">
          <mxGeometry y="216" width="170" height="26" as="geometry" />
        </mxCell>
        <mxCell id="oZL3xkJhQJ-XLGrvxhA8-13" style="edgeStyle=orthogonalEdgeStyle;rounded=0;orthogonalLoop=1;jettySize=auto;html=1;" edge="1" parent="Envm_nqXqrnGejjABVVU-1" source="Envm_nqXqrnGejjABVVU-35">
          <mxGeometry relative="1" as="geometry">
            <mxPoint x="170" y="298" as="targetPoint" />
            <Array as="points">
              <mxPoint x="230" y="255" />
              <mxPoint x="230" y="298" />
            </Array>
          </mxGeometry>
        </mxCell>
        <mxCell id="Envm_nqXqrnGejjABVVU-35" value="+ actualizarRecomendador()" style="text;strokeColor=none;fillColor=none;align=left;verticalAlign=top;spacingLeft=4;spacingRight=4;overflow=hidden;rotatable=0;points=[[0,0.5],[1,0.5]];portConstraint=eastwest;whiteSpace=wrap;html=1;" parent="Envm_nqXqrnGejjABVVU-1" vertex="1">
          <mxGeometry y="242" width="170" height="26" as="geometry" />
        </mxCell>
        <mxCell id="Envm_nqXqrnGejjABVVU-34" value="+ cambiarRecomendador()" style="text;strokeColor=none;fillColor=none;align=left;verticalAlign=top;spacingLeft=4;spacingRight=4;overflow=hidden;rotatable=0;points=[[0,0.5],[1,0.5]];portConstraint=eastwest;whiteSpace=wrap;html=1;" parent="Envm_nqXqrnGejjABVVU-1" vertex="1">
          <mxGeometry y="268" width="170" height="26" as="geometry" />
        </mxCell>
        <mxCell id="oZL3xkJhQJ-XLGrvxhA8-6" value="+ getPublicaciones()" style="text;strokeColor=none;fillColor=none;align=left;verticalAlign=top;spacingLeft=4;spacingRight=4;overflow=hidden;rotatable=0;points=[[0,0.5],[1,0.5]];portConstraint=eastwest;whiteSpace=wrap;html=1;" vertex="1" parent="Envm_nqXqrnGejjABVVU-1">
          <mxGeometry y="294" width="170" height="26" as="geometry" />
        </mxCell>
        <mxCell id="Envm_nqXqrnGejjABVVU-33" value="+ getFeed()" style="text;strokeColor=none;fillColor=none;align=left;verticalAlign=top;spacingLeft=4;spacingRight=4;overflow=hidden;rotatable=0;points=[[0,0.5],[1,0.5]];portConstraint=eastwest;whiteSpace=wrap;html=1;" parent="Envm_nqXqrnGejjABVVU-1" vertex="1">
          <mxGeometry y="320" width="170" height="26" as="geometry" />
        </mxCell>
        <mxCell id="Envm_nqXqrnGejjABVVU-8" style="edgeStyle=orthogonalEdgeStyle;rounded=0;orthogonalLoop=1;jettySize=auto;html=1;entryX=0.5;entryY=0;entryDx=0;entryDy=0;" parent="1" source="Envm_nqXqrnGejjABVVU-9" target="Envm_nqXqrnGejjABVVU-16" edge="1">
          <mxGeometry relative="1" as="geometry" />
        </mxCell>
        <mxCell id="PGmtbmI2aMLKD3MWeeFq-1" style="edgeStyle=orthogonalEdgeStyle;rounded=0;orthogonalLoop=1;jettySize=auto;html=1;entryX=0.006;entryY=0.12;entryDx=0;entryDy=0;entryPerimeter=0;" parent="1" source="Envm_nqXqrnGejjABVVU-9" target="Envm_nqXqrnGejjABVVU-9" edge="1">
          <mxGeometry relative="1" as="geometry">
            <mxPoint x="850" y="-160" as="targetPoint" />
            <Array as="points">
              <mxPoint x="936" />
              <mxPoint x="830" />
              <mxPoint x="830" y="-160" />
            </Array>
          </mxGeometry>
        </mxCell>
        <mxCell id="Envm_nqXqrnGejjABVVU-9" value="Respuesta" style="swimlane;fontStyle=1;align=center;verticalAlign=top;childLayout=stackLayout;horizontal=1;startSize=26;horizontalStack=0;resizeParent=1;resizeParentMax=0;resizeLast=0;collapsible=1;marginBottom=0;whiteSpace=wrap;html=1;" parent="1" vertex="1">
          <mxGeometry x="856" y="-170.06" width="160" height="86" as="geometry" />
        </mxCell>
        <mxCell id="Envm_nqXqrnGejjABVVU-10" value="- contenido" style="text;strokeColor=none;fillColor=none;align=left;verticalAlign=top;spacingLeft=4;spacingRight=4;overflow=hidden;rotatable=0;points=[[0,0.5],[1,0.5]];portConstraint=eastwest;whiteSpace=wrap;html=1;" parent="Envm_nqXqrnGejjABVVU-9" vertex="1">
          <mxGeometry y="26" width="160" height="26" as="geometry" />
        </mxCell>
        <mxCell id="Envm_nqXqrnGejjABVVU-11" value="" style="line;strokeWidth=1;fillColor=none;align=left;verticalAlign=middle;spacingTop=-1;spacingLeft=3;spacingRight=3;rotatable=0;labelPosition=right;points=[];portConstraint=eastwest;strokeColor=inherit;" parent="Envm_nqXqrnGejjABVVU-9" vertex="1">
          <mxGeometry y="52" width="160" height="8" as="geometry" />
        </mxCell>
        <mxCell id="Envm_nqXqrnGejjABVVU-12" value="+ &amp;lt;create&amp;gt; Respuesta()" style="text;strokeColor=none;fillColor=none;align=left;verticalAlign=top;spacingLeft=4;spacingRight=4;overflow=hidden;rotatable=0;points=[[0,0.5],[1,0.5]];portConstraint=eastwest;whiteSpace=wrap;html=1;" parent="Envm_nqXqrnGejjABVVU-9" vertex="1">
          <mxGeometry y="60" width="160" height="26" as="geometry" />
        </mxCell>
        <mxCell id="Envm_nqXqrnGejjABVVU-13" value="0...* seguidos" style="text;html=1;align=center;verticalAlign=middle;resizable=0;points=[];autosize=1;strokeColor=none;fillColor=none;" parent="1" vertex="1">
          <mxGeometry x="1330" y="-40" width="100" height="30" as="geometry" />
        </mxCell>
        <mxCell id="Envm_nqXqrnGejjABVVU-14" style="edgeStyle=orthogonalEdgeStyle;rounded=0;orthogonalLoop=1;jettySize=auto;html=1;" parent="1" source="Envm_nqXqrnGejjABVVU-10" target="Envm_nqXqrnGejjABVVU-2" edge="1">
          <mxGeometry relative="1" as="geometry" />
        </mxCell>
        <mxCell id="Envm_nqXqrnGejjABVVU-15" value="1 usuario" style="text;html=1;align=center;verticalAlign=middle;resizable=0;points=[];autosize=1;strokeColor=none;fillColor=none;" parent="1" vertex="1">
          <mxGeometry x="1011" y="-162.06" width="70" height="30" as="geometry" />
        </mxCell>
        <mxCell id="Envm_nqXqrnGejjABVVU-16" value="Publicacion" style="swimlane;fontStyle=1;align=center;verticalAlign=top;childLayout=stackLayout;horizontal=1;startSize=26;horizontalStack=0;resizeParent=1;resizeParentMax=0;resizeLast=0;collapsible=1;marginBottom=0;whiteSpace=wrap;html=1;" parent="1" vertex="1">
          <mxGeometry x="856" y="-0.05999999999999872" width="160" height="216" as="geometry" />
        </mxCell>
        <mxCell id="Envm_nqXqrnGejjABVVU-17" value="- titulo" style="text;strokeColor=none;fillColor=none;align=left;verticalAlign=top;spacingLeft=4;spacingRight=4;overflow=hidden;rotatable=0;points=[[0,0.5],[1,0.5]];portConstraint=eastwest;whiteSpace=wrap;html=1;" parent="Envm_nqXqrnGejjABVVU-16" vertex="1">
          <mxGeometry y="26" width="160" height="26" as="geometry" />
        </mxCell>
        <mxCell id="oZL3xkJhQJ-XLGrvxhA8-14" value="- contenido" style="text;strokeColor=none;fillColor=none;align=left;verticalAlign=top;spacingLeft=4;spacingRight=4;overflow=hidden;rotatable=0;points=[[0,0.5],[1,0.5]];portConstraint=eastwest;whiteSpace=wrap;html=1;" vertex="1" parent="Envm_nqXqrnGejjABVVU-16">
          <mxGeometry y="52" width="160" height="26" as="geometry" />
        </mxCell>
        <mxCell id="Envm_nqXqrnGejjABVVU-18" value="- fecha" style="text;strokeColor=none;fillColor=none;align=left;verticalAlign=top;spacingLeft=4;spacingRight=4;overflow=hidden;rotatable=0;points=[[0,0.5],[1,0.5]];portConstraint=eastwest;whiteSpace=wrap;html=1;" parent="Envm_nqXqrnGejjABVVU-16" vertex="1">
          <mxGeometry y="78" width="160" height="26" as="geometry" />
        </mxCell>
        <mxCell id="Envm_nqXqrnGejjABVVU-19" value="" style="line;strokeWidth=1;fillColor=none;align=left;verticalAlign=middle;spacingTop=-1;spacingLeft=3;spacingRight=3;rotatable=0;labelPosition=right;points=[];portConstraint=eastwest;strokeColor=inherit;" parent="Envm_nqXqrnGejjABVVU-16" vertex="1">
          <mxGeometry y="104" width="160" height="8" as="geometry" />
        </mxCell>
        <mxCell id="Envm_nqXqrnGejjABVVU-20" value="+ &amp;lt;create&amp;gt; Publicacion()" style="text;strokeColor=none;fillColor=none;align=left;verticalAlign=top;spacingLeft=4;spacingRight=4;overflow=hidden;rotatable=0;points=[[0,0.5],[1,0.5]];portConstraint=eastwest;whiteSpace=wrap;html=1;" parent="Envm_nqXqrnGejjABVVU-16" vertex="1">
          <mxGeometry y="112" width="160" height="26" as="geometry" />
        </mxCell>
        <mxCell id="oZL3xkJhQJ-XLGrvxhA8-12" style="edgeStyle=orthogonalEdgeStyle;rounded=0;orthogonalLoop=1;jettySize=auto;html=1;" edge="1" parent="Envm_nqXqrnGejjABVVU-16" source="oZL3xkJhQJ-XLGrvxhA8-11">
          <mxGeometry relative="1" as="geometry">
            <mxPoint x="344" y="80.06" as="targetPoint" />
          </mxGeometry>
        </mxCell>
        <mxCell id="oZL3xkJhQJ-XLGrvxhA8-11" value="+ cantidadLikes()" style="text;strokeColor=none;fillColor=none;align=left;verticalAlign=top;spacingLeft=4;spacingRight=4;overflow=hidden;rotatable=0;points=[[0,0.5],[1,0.5]];portConstraint=eastwest;whiteSpace=wrap;html=1;" vertex="1" parent="Envm_nqXqrnGejjABVVU-16">
          <mxGeometry y="138" width="160" height="26" as="geometry" />
        </mxCell>
        <mxCell id="oZL3xkJhQJ-XLGrvxhA8-10" value="+ cantidadDislikes()" style="text;strokeColor=none;fillColor=none;align=left;verticalAlign=top;spacingLeft=4;spacingRight=4;overflow=hidden;rotatable=0;points=[[0,0.5],[1,0.5]];portConstraint=eastwest;whiteSpace=wrap;html=1;" vertex="1" parent="Envm_nqXqrnGejjABVVU-16">
          <mxGeometry y="164" width="160" height="26" as="geometry" />
        </mxCell>
        <mxCell id="oZL3xkJhQJ-XLGrvxhA8-16" value="+ getFecha()" style="text;strokeColor=none;fillColor=none;align=left;verticalAlign=top;spacingLeft=4;spacingRight=4;overflow=hidden;rotatable=0;points=[[0,0.5],[1,0.5]];portConstraint=eastwest;whiteSpace=wrap;html=1;" vertex="1" parent="Envm_nqXqrnGejjABVVU-16">
          <mxGeometry y="190" width="160" height="26" as="geometry" />
        </mxCell>
        <mxCell id="Envm_nqXqrnGejjABVVU-21" value="1 publicacion" style="text;html=1;align=center;verticalAlign=middle;resizable=0;points=[];autosize=1;strokeColor=none;fillColor=none;" parent="1" vertex="1">
          <mxGeometry x="936" y="-80.06" width="90" height="30" as="geometry" />
        </mxCell>
        <mxCell id="Envm_nqXqrnGejjABVVU-23" value="0...* feed" style="text;html=1;align=center;verticalAlign=middle;resizable=0;points=[];autosize=1;strokeColor=none;fillColor=none;" parent="1" vertex="1">
          <mxGeometry x="1100" y="-20" width="70" height="30" as="geometry" />
        </mxCell>
        <mxCell id="Envm_nqXqrnGejjABVVU-48" style="edgeStyle=orthogonalEdgeStyle;rounded=0;orthogonalLoop=1;jettySize=auto;html=1;exitX=0.25;exitY=1;exitDx=0;exitDy=0;endArrow=none;endFill=0;startArrow=block;startFill=0;dashed=1;" parent="1" source="Envm_nqXqrnGejjABVVU-24" edge="1">
          <mxGeometry relative="1" as="geometry">
            <mxPoint x="1155.9999999999998" y="249.94" as="targetPoint" />
          </mxGeometry>
        </mxCell>
        <mxCell id="Envm_nqXqrnGejjABVVU-49" style="edgeStyle=orthogonalEdgeStyle;rounded=0;orthogonalLoop=1;jettySize=auto;html=1;endArrow=none;endFill=0;startArrow=block;startFill=0;dashed=1;" parent="1" source="Envm_nqXqrnGejjABVVU-24" edge="1">
          <mxGeometry relative="1" as="geometry">
            <mxPoint x="1331" y="249.94" as="targetPoint" />
          </mxGeometry>
        </mxCell>
        <mxCell id="Envm_nqXqrnGejjABVVU-51" style="edgeStyle=orthogonalEdgeStyle;rounded=0;orthogonalLoop=1;jettySize=auto;html=1;exitX=0.75;exitY=1;exitDx=0;exitDy=0;entryX=0.5;entryY=0;entryDx=0;entryDy=0;endArrow=none;endFill=0;startArrow=block;startFill=0;dashed=1;" parent="1" source="Envm_nqXqrnGejjABVVU-24" target="Envm_nqXqrnGejjABVVU-60" edge="1">
          <mxGeometry relative="1" as="geometry">
            <mxPoint x="1516" y="239.94" as="targetPoint" />
          </mxGeometry>
        </mxCell>
        <mxCell id="Envm_nqXqrnGejjABVVU-24" value="&amp;lt;interface&amp;gt;Recomendador" style="swimlane;fontStyle=1;align=center;verticalAlign=top;childLayout=stackLayout;horizontal=1;startSize=26;horizontalStack=0;resizeParent=1;resizeParentMax=0;resizeLast=0;collapsible=1;marginBottom=0;whiteSpace=wrap;html=1;" parent="1" vertex="1">
          <mxGeometry x="1226" y="129.94" width="210" height="70" as="geometry" />
        </mxCell>
        <mxCell id="Envm_nqXqrnGejjABVVU-25" value="" style="line;strokeWidth=1;fillColor=none;align=left;verticalAlign=middle;spacingTop=-1;spacingLeft=3;spacingRight=3;rotatable=0;labelPosition=right;points=[];portConstraint=eastwest;strokeColor=inherit;" parent="Envm_nqXqrnGejjABVVU-24" vertex="1">
          <mxGeometry y="26" width="210" height="8" as="geometry" />
        </mxCell>
        <mxCell id="oZL3xkJhQJ-XLGrvxhA8-9" value="+ &amp;lt;abstract&amp;gt; filtro()" style="text;strokeColor=none;fillColor=none;align=left;verticalAlign=top;spacingLeft=4;spacingRight=4;overflow=hidden;rotatable=0;points=[[0,0.5],[1,0.5]];portConstraint=eastwest;whiteSpace=wrap;html=1;" vertex="1" parent="Envm_nqXqrnGejjABVVU-24">
          <mxGeometry y="34" width="210" height="36" as="geometry" />
        </mxCell>
        <mxCell id="Envm_nqXqrnGejjABVVU-28" value="Debate" style="swimlane;fontStyle=1;align=center;verticalAlign=top;childLayout=stackLayout;horizontal=1;startSize=26;horizontalStack=0;resizeParent=1;resizeParentMax=0;resizeLast=0;collapsible=1;marginBottom=0;whiteSpace=wrap;html=1;" parent="1" vertex="1">
          <mxGeometry x="1494" y="-136.06" width="160" height="86" as="geometry" />
        </mxCell>
        <mxCell id="Envm_nqXqrnGejjABVVU-29" value="" style="line;strokeWidth=1;fillColor=none;align=left;verticalAlign=middle;spacingTop=-1;spacingLeft=3;spacingRight=3;rotatable=0;labelPosition=right;points=[];portConstraint=eastwest;strokeColor=inherit;" parent="Envm_nqXqrnGejjABVVU-28" vertex="1">
          <mxGeometry y="26" width="160" height="8" as="geometry" />
        </mxCell>
        <mxCell id="Envm_nqXqrnGejjABVVU-30" value="+ &amp;lt;create&amp;gt; Debate()" style="text;strokeColor=none;fillColor=none;align=left;verticalAlign=top;spacingLeft=4;spacingRight=4;overflow=hidden;rotatable=0;points=[[0,0.5],[1,0.5]];portConstraint=eastwest;whiteSpace=wrap;html=1;" parent="Envm_nqXqrnGejjABVVU-28" vertex="1">
          <mxGeometry y="34" width="160" height="26" as="geometry" />
        </mxCell>
        <mxCell id="Envm_nqXqrnGejjABVVU-31" value="+ crearUsuario()" style="text;strokeColor=none;fillColor=none;align=left;verticalAlign=top;spacingLeft=4;spacingRight=4;overflow=hidden;rotatable=0;points=[[0,0.5],[1,0.5]];portConstraint=eastwest;whiteSpace=wrap;html=1;" parent="Envm_nqXqrnGejjABVVU-28" vertex="1">
          <mxGeometry y="60" width="160" height="26" as="geometry" />
        </mxCell>
        <mxCell id="Envm_nqXqrnGejjABVVU-37" value="1 recomendador" style="text;html=1;align=center;verticalAlign=middle;resizable=0;points=[];autosize=1;strokeColor=none;fillColor=none;" parent="1" vertex="1">
          <mxGeometry x="1306" y="81.94" width="110" height="30" as="geometry" />
        </mxCell>
        <mxCell id="Envm_nqXqrnGejjABVVU-39" value="0...* seguidores" style="text;html=1;align=center;verticalAlign=middle;resizable=0;points=[];autosize=1;strokeColor=none;fillColor=none;" parent="1" vertex="1">
          <mxGeometry x="1384" y="-260" width="110" height="30" as="geometry" />
        </mxCell>
        <mxCell id="Envm_nqXqrnGejjABVVU-42" style="edgeStyle=orthogonalEdgeStyle;rounded=0;orthogonalLoop=1;jettySize=auto;html=1;entryX=-0.006;entryY=0.987;entryDx=0;entryDy=0;entryPerimeter=0;" parent="1" source="Envm_nqXqrnGejjABVVU-20" target="Envm_nqXqrnGejjABVVU-33" edge="1">
          <mxGeometry relative="1" as="geometry" />
        </mxCell>
        <mxCell id="Envm_nqXqrnGejjABVVU-46" value="0...* likes" style="text;html=1;align=center;verticalAlign=middle;resizable=0;points=[];autosize=1;strokeColor=none;fillColor=none;" parent="1" vertex="1">
          <mxGeometry x="1011" y="99.94" width="70" height="30" as="geometry" />
        </mxCell>
        <mxCell id="Envm_nqXqrnGejjABVVU-47" value="0...* dislikes" style="text;html=1;align=center;verticalAlign=middle;resizable=0;points=[];autosize=1;strokeColor=none;fillColor=none;" parent="1" vertex="1">
          <mxGeometry x="1010" y="149.94" width="90" height="30" as="geometry" />
        </mxCell>
        <mxCell id="Envm_nqXqrnGejjABVVU-52" value="RecomendadorSocial" style="swimlane;fontStyle=1;align=center;verticalAlign=top;childLayout=stackLayout;horizontal=1;startSize=26;horizontalStack=0;resizeParent=1;resizeParentMax=0;resizeLast=0;collapsible=1;marginBottom=0;whiteSpace=wrap;html=1;" parent="1" vertex="1">
          <mxGeometry x="1081" y="249.94" width="160" height="70" as="geometry" />
        </mxCell>
        <mxCell id="Envm_nqXqrnGejjABVVU-54" value="" style="line;strokeWidth=1;fillColor=none;align=left;verticalAlign=middle;spacingTop=-1;spacingLeft=3;spacingRight=3;rotatable=0;labelPosition=right;points=[];portConstraint=eastwest;strokeColor=inherit;" parent="Envm_nqXqrnGejjABVVU-52" vertex="1">
          <mxGeometry y="26" width="160" height="8" as="geometry" />
        </mxCell>
        <mxCell id="Envm_nqXqrnGejjABVVU-56" value="+ filtro()" style="text;strokeColor=none;fillColor=none;align=left;verticalAlign=top;spacingLeft=4;spacingRight=4;overflow=hidden;rotatable=0;points=[[0,0.5],[1,0.5]];portConstraint=eastwest;whiteSpace=wrap;html=1;" parent="Envm_nqXqrnGejjABVVU-52" vertex="1">
          <mxGeometry y="34" width="160" height="36" as="geometry" />
        </mxCell>
        <mxCell id="Envm_nqXqrnGejjABVVU-57" value="RecomendadorImpopular" style="swimlane;fontStyle=1;align=center;verticalAlign=top;childLayout=stackLayout;horizontal=1;startSize=26;horizontalStack=0;resizeParent=1;resizeParentMax=0;resizeLast=0;collapsible=1;marginBottom=0;whiteSpace=wrap;html=1;" parent="1" vertex="1">
          <mxGeometry x="1256" y="249.94" width="160" height="70" as="geometry" />
        </mxCell>
        <mxCell id="Envm_nqXqrnGejjABVVU-58" value="" style="line;strokeWidth=1;fillColor=none;align=left;verticalAlign=middle;spacingTop=-1;spacingLeft=3;spacingRight=3;rotatable=0;labelPosition=right;points=[];portConstraint=eastwest;strokeColor=inherit;" parent="Envm_nqXqrnGejjABVVU-57" vertex="1">
          <mxGeometry y="26" width="160" height="8" as="geometry" />
        </mxCell>
        <mxCell id="oZL3xkJhQJ-XLGrvxhA8-7" value="+&amp;nbsp; filtro()" style="text;strokeColor=none;fillColor=none;align=left;verticalAlign=top;spacingLeft=4;spacingRight=4;overflow=hidden;rotatable=0;points=[[0,0.5],[1,0.5]];portConstraint=eastwest;whiteSpace=wrap;html=1;" vertex="1" parent="Envm_nqXqrnGejjABVVU-57">
          <mxGeometry y="34" width="160" height="36" as="geometry" />
        </mxCell>
        <mxCell id="Envm_nqXqrnGejjABVVU-60" value="RecomendadorPopular" style="swimlane;fontStyle=1;align=center;verticalAlign=top;childLayout=stackLayout;horizontal=1;startSize=26;horizontalStack=0;resizeParent=1;resizeParentMax=0;resizeLast=0;collapsible=1;marginBottom=0;whiteSpace=wrap;html=1;" parent="1" vertex="1">
          <mxGeometry x="1436" y="249.94" width="160" height="70" as="geometry" />
        </mxCell>
        <mxCell id="Envm_nqXqrnGejjABVVU-61" value="" style="line;strokeWidth=1;fillColor=none;align=left;verticalAlign=middle;spacingTop=-1;spacingLeft=3;spacingRight=3;rotatable=0;labelPosition=right;points=[];portConstraint=eastwest;strokeColor=inherit;" parent="Envm_nqXqrnGejjABVVU-60" vertex="1">
          <mxGeometry y="26" width="160" height="8" as="geometry" />
        </mxCell>
        <mxCell id="oZL3xkJhQJ-XLGrvxhA8-8" value="+&amp;nbsp; filtro()" style="text;strokeColor=none;fillColor=none;align=left;verticalAlign=top;spacingLeft=4;spacingRight=4;overflow=hidden;rotatable=0;points=[[0,0.5],[1,0.5]];portConstraint=eastwest;whiteSpace=wrap;html=1;" vertex="1" parent="Envm_nqXqrnGejjABVVU-60">
          <mxGeometry y="34" width="160" height="36" as="geometry" />
        </mxCell>
        <mxCell id="Envm_nqXqrnGejjABVVU-63" style="edgeStyle=orthogonalEdgeStyle;rounded=0;orthogonalLoop=1;jettySize=auto;html=1;entryX=1.011;entryY=0.955;entryDx=0;entryDy=0;entryPerimeter=0;" parent="1" source="Envm_nqXqrnGejjABVVU-28" target="Envm_nqXqrnGejjABVVU-3" edge="1">
          <mxGeometry relative="1" as="geometry" />
        </mxCell>
        <mxCell id="Envm_nqXqrnGejjABVVU-64" value="0...* usuarios" style="text;html=1;align=center;verticalAlign=middle;resizable=0;points=[];autosize=1;strokeColor=none;fillColor=none;" parent="1" vertex="1">
          <mxGeometry x="1494" y="-220" width="90" height="30" as="geometry" />
        </mxCell>
        <mxCell id="Envm_nqXqrnGejjABVVU-77" style="edgeStyle=orthogonalEdgeStyle;rounded=0;orthogonalLoop=1;jettySize=auto;html=1;entryX=1.005;entryY=0.215;entryDx=0;entryDy=0;entryPerimeter=0;" parent="1" source="Envm_nqXqrnGejjABVVU-34" target="Envm_nqXqrnGejjABVVU-18" edge="1">
          <mxGeometry relative="1" as="geometry" />
        </mxCell>
        <mxCell id="PGmtbmI2aMLKD3MWeeFq-3" value="0...* respuestas" style="text;html=1;align=center;verticalAlign=middle;resizable=0;points=[];autosize=1;strokeColor=none;fillColor=none;" parent="1" vertex="1">
          <mxGeometry x="750" width="110" height="30" as="geometry" />
        </mxCell>
      </root>
    </mxGraphModel>
  </diagram>
</mxfile>
